PathFileType	4	(X/Y/Z)	/Users/itak/Documents/Research/Walk-IL/dataset/trc/00042_00004.trc
DataRate	CameraRate	NumFrames	NumMarkers	Units	OrigDataRate	OrigDataStartFrame	OrigNumFrames
100.000000	100.000000	4	53	mm	100.000000	270	540
Frame#	Time	RPSI			LPSI			L3			STRN			T10			C7			CLAV			RBAK			LBAK			LSHO			LUPA			LAEL			LAOL			LWTS			LWPS			LFRA			LIFD			LHPS			LHTS			RSHO			RUPA			RAEL			RAOL			RWTS			RWPS			RFRA			RIFD			RHTS			RHPS			RBHD			LFHD			RFHD			LBHD			LHIP			RHIP			RASI			LASI			LKNE			LTHI			LANK			LTIP			LTOE			LMT1			LMT5			LHEE			RKNE			RTHI			RANK			RTIP			RTOE			RMT1			RMT5			RHEE			
		X1	Y1	Z1	X2	Y2	Z2	X3	Y3	Z3	X4	Y4	Z4	X5	Y5	Z5	X6	Y6	Z6	X7	Y7	Z7	X8	Y8	Z8	X9	Y9	Z9	X10	Y10	Z10	X11	Y11	Z11	X12	Y12	Z12	X13	Y13	Z13	X14	Y14	Z14	X15	Y15	Z15	X16	Y16	Z16	X17	Y17	Z17	X18	Y18	Z18	X19	Y19	Z19	X20	Y20	Z20	X21	Y21	Z21	X22	Y22	Z22	X23	Y23	Z23	X24	Y24	Z24	X25	Y25	Z25	X26	Y26	Z26	X27	Y27	Z27	X28	Y28	Z28	X29	Y29	Z29	X30	Y30	Z30	X31	Y31	Z31	X32	Y32	Z32	X33	Y33	Z33	X34	Y34	Z34	X35	Y35	Z35	X36	Y36	Z36	X37	Y37	Z37	X38	Y38	Z38	X39	Y39	Z39	X40	Y40	Z40	X41	Y41	Z41	X42	Y42	Z42	X43	Y43	Z43	X44	Y44	Z44	X45	Y45	Z45	X46	Y46	Z46	X47	Y47	Z47	X48	Y48	Z48	X49	Y49	Z49	X50	Y50	Z50	X51	Y51	Z51	X52	Y52	Z52	X53	Y53	Z53	

271	2.7	-615.8741455078125	1061.880859375	256.5614013671875	-570.322998046875	1061.989624023438	99.40164184570312	-595.6650390625	1118.86865234375	171.2660217285156	-384.4041442871094	1312.907470703125	257.2955932617188	-616.986328125	1264.595581054688	168.7651824951172	-568.8572998046875	1530.785400390625	184.3786468505859	-422.2714538574219	1439.514770507812	243.1848297119141	-643.2496948242188	1392.25048828125	238.6980133056641	-551.8767700195312	1493.16650390625	86.44245147705078	-431.2187805175781	1502.086791992188	51.99871826171875	-436.6662292480469	1378.846435546875	-35.40994262695312	-434.2523803710938	1163.974853515625	-71.87047576904297	-512.2196655273438	1148.590576171875	-2.534247636795044	-363.1405944824219	909.7923583984375	-3.51240062713623	-424.1433410644531	896.6340942382812	-66.46646881103516	-419.4933471679688	1049.4228515625	-79.44879150390625	-343.192138671875	725.7552490234375	18.65421867370605	-391.221435546875	807.0491943359375	-59.03024291992188	-337.817626953125	816.8585815429688	-12.8996524810791	-558.3939208984375	1512.197143554688	375.5064086914062	-595.7003173828125	1440.690185546875	434.9763488769531	-634.8954467773438	1171.604125976562	447.8086242675781	-598.9458618164062	1144.337524414062	358.7609252929688	-442.4163818359375	954.0457763671875	472.1446838378906	-515.5103149414062	918.4349365234375	516.359130859375	-614.4261474609375	1095.309936523438	470.8442993164062	-371.5515441894531	787.435546875	463.8468627929688	-384.5682983398438	859.8635864257812	501.1996459960938	-449.4677124023438	834.82861328125	533.0457763671875	-470.8020324707031	1707.266235351562	139.7395629882812	-439.6842346191406	1736.091796875	354.3868408203125	-368.9798278808594	1743.334350585938	286.2414855957031	-569.4052124023438	1695.333129882812	245.0850830078125	-440.5975646972656	961.2548217773438	19.32641220092773	-538.4685668945312	938.9733276367188	380.4079284667969	-419.8718566894531	978.773681640625	343.1040954589844	-357.1538391113281	1010.168273925781	119.466796875	-283.3042907714844	537.02490234375	111.8417739868164	-331.7976684570312	665.5692138671875	52.20622634887695	-399.5624694824219	69.47872161865234	-32.12099456787109	-354.7884521484375	312.9546508789062	14.97891902923584	-234.5939025878906	52.70064926147461	119.0901260375977	-294.2381896972656	57.136474609375	108.976921081543	-280.7152709960938	65.97092437744141	4.484892845153809	-484.1521606445312	73.31020355224609	-15.581130027771	-511.271240234375	508.1944580078125	284.861083984375	-512.3616943359375	769.5225830078125	365.5259399414062	-616.6607666015625	41.77215576171875	162.4124450683594	-535.115234375	386.9894409179688	258.6412963867188	-383.2709350585938	43.01763153076172	194.8904113769531	-433.6381225585938	49.04154205322266	147.61962890625	-483.5652770996094	40.83754348754883	230.4864044189453	-655.381591796875	45.20951080322266	102.6260833740234	
272	2.71	-610.1438598632812	1061.363647460938	257.7136535644531	-562.5848999023438	1061.445922851562	101.1361846923828	-588.773193359375	1118.250366210938	172.7211761474609	-378.5122375488281	1312.270751953125	261.05029296875	-610.126953125	1264.026245117188	169.9573974609375	-562.135498046875	1530.210815429688	186.0639495849609	-416.1634521484375	1438.903198242188	246.4331665039062	-637.0632934570312	1391.706665039062	239.6359710693359	-544.1474609375	1492.532592773438	88.32382965087891	-423.1611328125	1501.36962890625	55.13398742675781	-427.7364501953125	1378.068725585938	-32.22486114501953	-425.1326599121094	1163.171752929688	-68.53571319580078	-503.7051696777344	1147.868408203125	0.1500449478626251	-355.2042541503906	908.6835327148438	0.1353572905063629	-415.9124755859375	895.78955078125	-63.36161422729492	-410.57958984375	1048.595458984375	-76.08755493164062	-336.0082397460938	724.5596313476562	22.26756286621094	-383.2406311035156	806.0921630859375	-55.72282791137695	-330.0455932617188	815.6773071289062	-9.121522903442383	-553.7197875976562	1511.640502929688	377.305419921875	-591.6812133789062	1440.1328125	436.3569946289062	-631.072509765625	1170.99853515625	448.6068115234375	-594.2112426757812	1143.777221679688	359.9332580566406	-438.6210632324219	953.5347290039062	474.8142700195312	-512.2000732421875	917.918212890625	518.288818359375	-610.761962890625	1094.699584960938	471.8437805175781	-367.8080444335938	786.9247436523438	467.0826416015625	-381.0129699707031	859.39208984375	504.3796691894531	-446.3244018554688	834.3148193359375	535.6102905273438	-463.446044921875	1706.780151367188	142.5223388671875	-434.4700012207031	1735.394653320312	357.4562072753906	-363.0421447753906	1742.611694335938	290.0520324707031	-563.0768432617188	1694.92431640625	246.7286071777344	-431.5896301269531	960.810302734375	22.67292594909668	-534.4252319335938	938.2952270507812	382.5248413085938	-415.2492980957031	977.9743041992188	346.787353515625	-349.7846374511719	1009.625122070312	123.9974365234375	-273.1085205078125	538.3853759765625	119.7981491088867	-321.4055786132812	665.9509887695312	58.37007141113281	-371.7281494140625	66.36760711669922	-20.50686645507812	-335.2443237304688	311.7171936035156	24.21956253051758	-211.9959869384766	53.52461242675781	136.8549499511719	-271.3341674804688	57.05661392211914	124.6039962768555	-254.1162109375	65.16090393066406	20.47537422180176	-456.9461669921875	69.00679016113281	-7.000022411346436	-509.2915344238281	507.5263977050781	286.1565551757812	-509.3489379882812	768.7003173828125	367.3613586425781	-616.5642700195312	41.90557479858398	162.3277893066406	-533.6824951171875	386.5864868164062	259.4078979492188	-383.2225952148438	42.96244812011719	194.9595947265625	-433.5321960449219	49.03045654296875	147.7304992675781	-483.532958984375	40.78895950317383	230.5706024169922	-655.4788208007812	45.61062240600586	102.4584579467773	
273	2.72	-604.3627319335938	1060.793823242188	258.9031677246094	-554.83203125	1060.844360351562	102.9218368530273	-581.8657836914062	1117.588012695312	174.22216796875	-372.5834655761719	1311.581176757812	264.8353576660156	-603.234375	1263.415405273438	171.1995849609375	-555.3359375	1529.596801757812	187.7970886230469	-410.018798828125	1438.239990234375	249.7128753662109	-630.8245849609375	1391.125366210938	240.6052703857422	-536.3589477539062	1491.855712890625	90.25133514404297	-415.0688781738281	1500.604370117188	58.31787490844727	-418.7704467773438	1377.247680664062	-28.98396682739258	-416.0068054199219	1162.328979492188	-65.15769195556641	-495.1909484863281	1147.115356445312	2.863451242446899	-347.2900390625	907.5457763671875	3.819339752197266	-407.68505859375	894.918212890625	-60.22151947021484	-401.6576538085938	1047.732055664062	-72.68946075439453	-328.8158874511719	723.333251953125	25.94184684753418	-375.2519226074219	805.1041870117188	-52.35934829711914	-322.2542419433594	814.4690551757812	-5.281335353851318	-548.9795532226562	1511.039794921875	379.1241760253906	-587.5999755859375	1439.535888671875	437.7500915527344	-627.2449340820312	1170.3720703125	449.3773803710938	-589.46142578125	1143.185424804688	361.0969543457031	-434.9801940917969	952.861328125	477.4818725585938	-509.1235656738281	917.3017578125	520.1644287109375	-607.1394653320312	1094.053344726562	472.8081970214844	-364.3666687011719	786.2050170898438	470.2894592285156	-377.7333984375	858.6965942382812	507.5338745117188	-443.4408264160156	833.6397705078125	538.1343383789062	-455.9962463378906	1706.238891601562	145.34814453125	-429.1903991699219	1734.62939453125	360.5611877441406	-357.06396484375	1741.81982421875	293.8933410644531	-556.6593017578125	1694.44921875	248.4040985107422	-422.6291198730469	960.3341674804688	26.02542495727539	-530.3168334960938	937.5855712890625	384.6419372558594	-410.5902709960938	977.1316528320312	350.4589538574219	-342.4588012695312	1009.037536621094	128.5144653320312	-263.1394958496094	539.7315063476562	127.5566635131836	-311.2155151367188	666.2963256835938	64.49916839599609	-344.6444091796875	63.73535919189453	-8.018181800842285	-316.1933898925781	310.6835632324219	33.83267974853516	-190.0617218017578	54.26747512817383	154.8192443847656	-249.0421600341797	56.99650192260742	140.6095275878906	-228.3475341796875	64.56421661376953	36.93826675415039	-430.3139038085938	65.30014038085938	2.689927339553833	-507.0617980957031	506.8648681640625	287.482177734375	-506.0938110351562	767.88427734375	369.1705627441406	-616.4616088867188	42.06718826293945	162.2270812988281	-532.0416870117188	386.1521606445312	260.2133483886719	-383.1562194824219	42.90058135986328	195.0311584472656	-433.4437255859375	49.00177001953125	147.8211975097656	-483.5014343261719	40.74205017089844	230.6447601318359	-655.5157470703125	46.03042221069336	102.2924728393555	
274	2.73	-598.5115356445312	1060.169677734375	260.1383056640625	-547.0581665039062	1060.181274414062	104.7574920654297	-574.9365234375	1116.877319335938	175.7666015625	-366.6152038574219	1310.836547851562	268.6480102539062	-596.3011474609375	1262.763916015625	172.4939422607422	-548.4613647460938	1528.94189453125	189.5796203613281	-403.8395690917969	1437.521240234375	253.026123046875	-624.536376953125	1390.505859375	241.6097259521484	-528.5123901367188	1491.132446289062	92.22916412353516	-406.9386596679688	1499.788208007812	61.55190658569336	-409.7716064453125	1376.380737304688	-25.68688011169434	-406.8800659179688	1161.445678710938	-61.73978805541992	-486.676025390625	1146.3291015625	5.606497287750244	-339.4031372070312	906.3842163085938	7.53144645690918	-399.4320678710938	894.0162963867188	-57.03715896606445	-392.7306518554688	1046.833740234375	-69.25460815429688	-321.6023254394531	722.0834350585938	29.6766185760498	-367.2357788085938	804.0858154296875	-48.93746948242188	-314.45166015625	813.238525390625	-1.38888144493103	-544.1609497070312	1510.393676757812	380.9698791503906	-583.442626953125	1438.90087890625	439.1639404296875	-623.4115600585938	1169.728759765625	450.1299743652344	-584.6961669921875	1142.56396484375	362.2608642578125	-431.4898986816406	952.037109375	480.1431579589844	-506.25732421875	916.5887451171875	521.989013671875	-603.5559692382812	1093.372802734375	473.7456970214844	-361.1957702636719	785.2953491210938	473.4584655761719	-374.7081909179688	857.7926025390625	510.6555786132812	-440.7908325195312	832.8106689453125	540.6146850585938	-448.4606323242188	1705.639526367188	148.21435546875	-423.8440856933594	1733.798461914062	363.7043762207031	-351.0387573242188	1740.959838867188	297.7642822265625	-550.1605224609375	1693.906005859375	250.1338195800781	-413.7263793945312	959.8261108398438	29.3741626739502	-526.1383056640625	936.8494873046875	386.7611389160156	-405.8902893066406	976.2481079101562	354.1181640625	-335.1561584472656	1008.410217285156	133.0131683349609	-253.3778076171875	541.0503540039062	135.0956420898438	-301.2153625488281	666.5977783203125	70.56926727294922	-318.391845703125	61.55641937255859	5.282702922821045	-297.68017578125	309.8277587890625	43.77296447753906	-168.7420043945312	54.97871398925781	172.8958282470703	-227.3154907226562	56.99683380126953	156.9163665771484	-203.4318084716797	64.18077087402344	53.77391815185547	-404.3519592285156	62.15359115600586	13.45308303833008	-504.5912170410156	506.2097778320312	288.8554382324219	-502.6287841796875	767.078125	370.9758911132812	-616.357666015625	42.26283264160156	162.1107635498047	-530.1997680664062	385.6849975585938	261.0753479003906	-383.0780639648438	42.83247375488281	195.1014556884766	-433.3926696777344	48.96015548706055	147.8849945068359	-483.4757995605469	40.69698333740234	230.7068481445312	-655.4949340820312	46.47470092773438	102.1302871704102	
